<mxfile host="app.diagrams.net" agent="Mozilla/5.0 (Windows NT 10.0; Win64; x64) AppleWebKit/537.36 (KHTML, like Gecko) Chrome/138.0.0.0 Safari/537.36" version="28.0.4">
  <diagram name="Página-1" id="0BZ_mmA2SXwuide0sBaK">
    <mxGraphModel dx="965" dy="995" grid="1" gridSize="10" guides="1" tooltips="1" connect="1" arrows="1" fold="1" page="1" pageScale="1" pageWidth="827" pageHeight="1169" math="0" shadow="0">
      <root>
        <mxCell id="0" />
        <mxCell id="1" parent="0" />
        <mxCell id="pC7Nix-mfJE9SUhvRukl-6" style="edgeStyle=none;curved=1;rounded=0;orthogonalLoop=1;jettySize=auto;html=1;entryX=0;entryY=0.5;entryDx=0;entryDy=0;fontSize=12;startSize=8;endSize=8;" edge="1" parent="1" source="pC7Nix-mfJE9SUhvRukl-1" target="pC7Nix-mfJE9SUhvRukl-2">
          <mxGeometry relative="1" as="geometry" />
        </mxCell>
        <mxCell id="pC7Nix-mfJE9SUhvRukl-7" value="1. Ingresar Datos Recurso" style="edgeLabel;html=1;align=center;verticalAlign=middle;resizable=0;points=[];fontSize=12;" vertex="1" connectable="0" parent="pC7Nix-mfJE9SUhvRukl-6">
          <mxGeometry x="-0.0716" y="-2" relative="1" as="geometry">
            <mxPoint as="offset" />
          </mxGeometry>
        </mxCell>
        <mxCell id="pC7Nix-mfJE9SUhvRukl-1" value=":Administrador" style="html=1;whiteSpace=wrap;" vertex="1" parent="1">
          <mxGeometry x="80" y="50" width="110" height="50" as="geometry" />
        </mxCell>
        <mxCell id="pC7Nix-mfJE9SUhvRukl-8" style="edgeStyle=none;curved=1;rounded=0;orthogonalLoop=1;jettySize=auto;html=1;entryX=1;entryY=0.5;entryDx=0;entryDy=0;fontSize=12;startSize=8;endSize=8;" edge="1" parent="1" source="pC7Nix-mfJE9SUhvRukl-2" target="pC7Nix-mfJE9SUhvRukl-3">
          <mxGeometry relative="1" as="geometry" />
        </mxCell>
        <mxCell id="pC7Nix-mfJE9SUhvRukl-9" value="2. Enviar Formulario Recurso" style="edgeLabel;html=1;align=center;verticalAlign=middle;resizable=0;points=[];fontSize=12;" vertex="1" connectable="0" parent="pC7Nix-mfJE9SUhvRukl-8">
          <mxGeometry x="-0.05" y="-2" relative="1" as="geometry">
            <mxPoint x="17" as="offset" />
          </mxGeometry>
        </mxCell>
        <mxCell id="pC7Nix-mfJE9SUhvRukl-2" value=":UI_RegistroRecurso" style="html=1;whiteSpace=wrap;" vertex="1" parent="1">
          <mxGeometry x="370" y="120" width="120" height="50" as="geometry" />
        </mxCell>
        <mxCell id="pC7Nix-mfJE9SUhvRukl-12" style="edgeStyle=none;curved=1;rounded=0;orthogonalLoop=1;jettySize=auto;html=1;entryX=0;entryY=0.5;entryDx=0;entryDy=0;fontSize=12;startSize=8;endSize=8;" edge="1" parent="1" source="pC7Nix-mfJE9SUhvRukl-3" target="pC7Nix-mfJE9SUhvRukl-4">
          <mxGeometry relative="1" as="geometry" />
        </mxCell>
        <mxCell id="pC7Nix-mfJE9SUhvRukl-13" value="4. Guardar Recurso" style="edgeLabel;html=1;align=center;verticalAlign=middle;resizable=0;points=[];fontSize=12;" vertex="1" connectable="0" parent="pC7Nix-mfJE9SUhvRukl-12">
          <mxGeometry x="-0.1041" y="1" relative="1" as="geometry">
            <mxPoint as="offset" />
          </mxGeometry>
        </mxCell>
        <mxCell id="pC7Nix-mfJE9SUhvRukl-14" style="edgeStyle=none;curved=1;rounded=0;orthogonalLoop=1;jettySize=auto;html=1;entryX=0.5;entryY=0;entryDx=0;entryDy=0;fontSize=12;startSize=8;endSize=8;" edge="1" parent="1" source="pC7Nix-mfJE9SUhvRukl-3" target="pC7Nix-mfJE9SUhvRukl-5">
          <mxGeometry relative="1" as="geometry" />
        </mxCell>
        <mxCell id="pC7Nix-mfJE9SUhvRukl-15" value="5. Notificar Registro Exitoso" style="edgeLabel;html=1;align=center;verticalAlign=middle;resizable=0;points=[];fontSize=12;" vertex="1" connectable="0" parent="pC7Nix-mfJE9SUhvRukl-14">
          <mxGeometry x="-0.1368" y="1" relative="1" as="geometry">
            <mxPoint as="offset" />
          </mxGeometry>
        </mxCell>
        <mxCell id="pC7Nix-mfJE9SUhvRukl-3" value=":SistemaRecursos" style="html=1;whiteSpace=wrap;" vertex="1" parent="1">
          <mxGeometry x="75" y="210" width="120" height="50" as="geometry" />
        </mxCell>
        <mxCell id="pC7Nix-mfJE9SUhvRukl-4" value=":BD_Recursos" style="html=1;whiteSpace=wrap;" vertex="1" parent="1">
          <mxGeometry x="320" y="280" width="120" height="50" as="geometry" />
        </mxCell>
        <mxCell id="pC7Nix-mfJE9SUhvRukl-5" value=":Notificación" style="html=1;whiteSpace=wrap;" vertex="1" parent="1">
          <mxGeometry x="75" y="370" width="120" height="50" as="geometry" />
        </mxCell>
        <mxCell id="pC7Nix-mfJE9SUhvRukl-10" style="edgeStyle=orthogonalEdgeStyle;rounded=0;orthogonalLoop=1;jettySize=auto;html=1;entryX=0;entryY=0.5;entryDx=0;entryDy=0;fontSize=12;startSize=8;endSize=8;exitX=1;exitY=0.25;exitDx=0;exitDy=0;" edge="1" parent="1" source="pC7Nix-mfJE9SUhvRukl-3" target="pC7Nix-mfJE9SUhvRukl-3">
          <mxGeometry relative="1" as="geometry">
            <Array as="points">
              <mxPoint x="210" y="223" />
              <mxPoint x="210" y="180" />
              <mxPoint x="55" y="180" />
              <mxPoint x="55" y="235" />
            </Array>
          </mxGeometry>
        </mxCell>
        <mxCell id="pC7Nix-mfJE9SUhvRukl-11" value="3. Validar Datos Recurso" style="edgeLabel;html=1;align=center;verticalAlign=middle;resizable=0;points=[];fontSize=12;" vertex="1" connectable="0" parent="pC7Nix-mfJE9SUhvRukl-10">
          <mxGeometry x="-0.0709" relative="1" as="geometry">
            <mxPoint as="offset" />
          </mxGeometry>
        </mxCell>
      </root>
    </mxGraphModel>
  </diagram>
</mxfile>
